# xmcd
#
# Track frame offsets: 
#        150
#        12616
#        29308
#        44067
#        59973
#        72323
#        90515
#        111351
#        130742
#        139539
#
# Disc length: 2093 seconds
#
# Revision: 0
# Processed by: cddbd v1.5PL3 Copyright (c) Steve Scherf et al.
# Submitted via: ExactAudioCopy v0.90b4
#
DISCID=95082b0a
DTITLE=Doug Jernigan - Country Jazz Steel Guitar
DYEAR=1900
DGENRE=Country
TTITLE0=Summertime
TTITLE1=You Stepped Out of a Dream
TTITLE2=Anthropology
TTITLE3=Makin' the Rounds
TTITLE4=Hal's That
TTITLE5=Black's Blues
TTITLE6=Skylark
TTITLE7=One Note Samba
TTITLE8=My Hoe Down
TTITLE9=Dream Girl
EXTD=
EXTT0=
EXTT1=
EXTT2=
EXTT3=
EXTT4=
EXTT5=
EXTT6=
EXTT7=
EXTT8=
EXTT9=
PLAYORDER=
